<?xml version="1.0" encoding="utf-8"?>
<!-- Generator: Adobe Illustrator 23.0.3, SVG Export Plug-In . SVG Version: 6.00 Build 0)  -->
<svg version="1.1" id="Layer_1" xmlns="http://www.w3.org/2000/svg" xmlns:xlink="http://www.w3.org/1999/xlink" x="0px" y="0px"
	 viewBox="0 0 802 302" style="enable-background:new 0 0 802 302;" xml:space="preserve">
<style type="text/css">
	.st0{fill-rule:evenodd;clip-rule:evenodd;fill:#00B388;}
	.st1{fill:#FFFFFF;}
	.st2{fill-rule:evenodd;clip-rule:evenodd;fill:#101820;}
</style>
<title>grid</title>
<desc>Created with Sketch.</desc>
<g id="book">
	<g id="slide_07" transform="translate(-230.000000, -233.000000)">
		<g id="logo" transform="translate(230.000000, 233.000000)">
			<g id="icon" transform="translate(51.000000, 51.000000)">
				<g id="bg">
					<path class="st0" d="M150.8,4.3C139.5,1.7,121,0,100,0S60.5,1.7,49.2,4.3C26.7,9,9,26.7,4.3,49.2C1.7,60.5,0,79,0,100
						s1.7,39.5,4.3,50.8C9,173.3,26.7,191,49.2,195.7C60.5,198.3,79,200,100,200s39.5-1.7,50.8-4.3c22.5-4.7,40.2-22.4,44.9-44.9
						c2.6-11.3,4.3-29.8,4.3-50.8s-1.7-39.5-4.3-50.8C191,26.7,173.3,9,150.8,4.3z"/>
				</g>
				<path id="Path" class="st1" d="M124,153.5c-1.9-4.5-5.9-7.9-10.8-8.9c-2.9-0.7-7.8-1.1-13.2-1.1s-10.3,0.4-13.2,1.1
					c-4.9,1-8.9,4.4-10.8,8.9l0,0l0,0c-0.7,1.6-2.3,2.5-3.9,2.3c-0.4,0-0.8-0.1-1.1-0.1c-7.8-0.8-14-1.9-17.6-3.1l0,0
					c-2.4-0.9-4.1-3.2-4.1-5.9c0-0.1,0-0.1,0-0.2c0-0.1,0-0.2,0-0.3v-0.1c0-0.1,0-0.1,0-0.2c0.6-8.2,5.6-27.3,13-49.1
					c8.5-24.9,17.3-45.1,21.3-49.1l0,0c0.6-0.7,1.4-1.2,2.2-1.6c0.3-0.2,0.7-0.4,1.2-0.5l0,0c2.6-0.9,7.5-1.5,13-1.5l0,0
					c5.5,0,10.4,0.6,13,1.5l0,0l0,0c0.5,0.2,0.9,0.3,1.2,0.5c0.8,0.4,1.5,1,2.2,1.6l0,0c4,3.9,12.8,24.1,21.3,49.1
					c7.4,21.8,12.4,40.9,13,49.1c0,0.1,0,0.1,0,0.2v0.1c0,0.1,0,0.2,0,0.3s0,0.1,0,0.2c0,2.7-1.7,5-4.1,5.9l0,0
					c-3.6,1.3-9.7,2.4-17.6,3.1c-0.3,0-0.8,0.1-1.2,0.1l0,0C126.2,155.9,124.7,155,124,153.5L124,153.5z"/>
			</g>
			<path id="woodmark" class="st2" d="M370.4,117.6h19.1V201h-19.1v-14.7c-6,10.4-16.2,16.4-29.5,16.4c-22.2,0-39.9-19.4-39.9-43.5
				s17.7-43.3,39.9-43.3c13.3,0,23.5,6,29.5,16.4V117.6z M656.1,117.6h19.1V201h-19.1v-14.7c-6,10.4-16.2,16.4-29.5,16.4
				c-22.2,0-39.9-19.4-39.9-43.5s17.7-43.3,39.9-43.3c13.3,0,23.5,6,29.5,16.4V117.6z M345.4,184.6c14.5,0,25.4-10.9,25.4-25.4
				c0-14.3-10.9-25.2-25.4-25.2c-14.1,0-25.4,11.2-25.4,25.2C320,173.4,331.2,184.6,345.4,184.6z M630.1,184.6
				c14.5,0,25.4-10.9,25.4-25.4c0-14.3-10.9-25.2-25.4-25.2c-14.1,0-25.4,11.2-25.4,25.2C604.7,173.4,616,184.6,630.1,184.6z
				 M418,76c6.6,0,12.3,5.6,12.3,12.1c0,6.8-5.6,12.3-12.3,12.3s-12.1-5.5-12.1-12.3C405.9,81.6,411.4,76,418,76z M408.6,117.4h18.9
				v83.4h-18.9V117.4z M487,115.8c3.6,0,7.2,0.5,9.7,1.5c1.5,0.6,2.8,1.2,3.8,1.7l-7.7,16.1c-2.4-0.7-5.1-1.1-7.7-1.1
				c-9.2,0-19.4,7.7-19.4,22.3v44.5h-18.9v-83.4h18.9v12C469.4,121.4,478.8,115.8,487,115.8z M582,179.7
				c-6.3,13.8-21,22.8-38.3,22.8c-24.7,0-43.6-18.6-43.6-43.3s18.7-43.5,43.5-43.5c16.2,0,29.8,8,36,20.3l-16,9
				c-3.4-6.6-10.9-11.1-19.9-11.1c-14.3,0-24.7,10.9-24.7,25.2c0,14.1,10.6,25,24.9,25c9.7,0,17.7-4.6,21.5-12.3L582,179.7z
				 M713.3,76v124.8h-18.9V76H713.3z M751.4,76v124.8h-18.9V76H751.4z"/>
		</g>
	</g>
</g>
</svg>
