<?xml version="1.0" encoding="utf-8"?>
<!-- Generator: Adobe Illustrator 23.0.3, SVG Export Plug-In . SVG Version: 6.00 Build 0)  -->
<svg version="1.1" id="Layer_1" xmlns="http://www.w3.org/2000/svg" xmlns:xlink="http://www.w3.org/1999/xlink" x="0px" y="0px"
	 viewBox="0 0 302 302" style="enable-background:new 0 0 302 302;" xml:space="preserve">
<style type="text/css">
	.st0{fill-rule:evenodd;clip-rule:evenodd;fill:#00B388;}
	.st1{fill:#FFFFFF;}
</style>
<title>grid</title>
<desc>Created with Sketch.</desc>
<g id="book">
	<g id="slide_07" transform="translate(-230.000000, -233.000000)">
		<g id="logo" transform="translate(230.000000, 233.000000)">
			<g id="icon" transform="translate(51.000000, 51.000000)">
				<g id="bg">
					<path class="st0" d="M150.8,4.3C139.5,1.7,121,0,100,0S60.5,1.7,49.2,4.3C26.7,9,9,26.7,4.3,49.2C1.7,60.5,0,79,0,100
						s1.7,39.5,4.3,50.8C9,173.3,26.7,191,49.2,195.7C60.5,198.3,79,200,100,200s39.5-1.7,50.8-4.3c22.5-4.7,40.2-22.4,44.9-44.9
						c2.6-11.3,4.3-29.8,4.3-50.8s-1.7-39.5-4.3-50.8C191,26.7,173.3,9,150.8,4.3z"/>
				</g>
				<path id="Path" class="st1" d="M124,153.5c-1.9-4.5-5.9-7.9-10.8-8.9c-2.9-0.7-7.8-1.1-13.2-1.1s-10.3,0.4-13.2,1.1
					c-4.9,1-8.9,4.4-10.8,8.9l0,0l0,0c-0.7,1.6-2.3,2.5-3.9,2.3c-0.4,0-0.8-0.1-1.1-0.1c-7.8-0.8-14-1.9-17.6-3.1l0,0
					c-2.4-0.9-4.1-3.2-4.1-5.9c0-0.1,0-0.1,0-0.2c0-0.1,0-0.2,0-0.3v-0.1c0-0.1,0-0.1,0-0.2c0.6-8.2,5.6-27.3,13-49.1
					c8.5-24.9,17.3-45.1,21.3-49.1l0,0c0.6-0.7,1.4-1.2,2.2-1.6c0.3-0.2,0.7-0.4,1.2-0.5l0,0c2.6-0.9,7.5-1.5,13-1.5l0,0
					c5.5,0,10.4,0.6,13,1.5l0,0l0,0c0.5,0.2,0.9,0.3,1.2,0.5c0.8,0.4,1.5,1,2.2,1.6l0,0c4,3.9,12.8,24.1,21.3,49.1
					c7.4,21.8,12.4,40.9,13,49.1c0,0.1,0,0.1,0,0.2v0.1c0,0.1,0,0.2,0,0.3s0,0.1,0,0.2c0,2.7-1.7,5-4.1,5.9l0,0
					c-3.6,1.3-9.7,2.4-17.6,3.1c-0.3,0-0.8,0.1-1.2,0.1l0,0C126.2,155.9,124.7,155,124,153.5L124,153.5z"/>
			</g>
		</g>
	</g>
</g>
</svg>
