<svg width="24px" height="24px" viewBox="0 0 48 48" fill="none" xmlns="http://www.w3.org/2000/svg" class="Integrations1__SvgIntegrations1-sc-si9w29-0 hnowBM">
  <path fill-rule="evenodd" clip-rule="evenodd" d="M9.5 12.5a1 1 0 100-2 1 1 0 000 2zm0 1.5a2.5 2.5 0 100-5 2.5 2.5 0 000 5zM39 44.25a3.25 3.25 0 100-6.5 3.25 3.25 0 000 6.5zM39 46a5 5 0 100-10 5 5 0 000 10zM38 9.25a2.25 2.25 0 100-4.5 2.25 2.25 0 000 4.5zM38 11a4 4 0 100-8 4 4 0 000 8zM8 38.25a2.25 2.25 0 100-4.5 2.25 2.25 0 000 4.5zM8 40a4 4 0 100-8 4 4 0 000 8zm14-9.75a6.25 6.25 0 100-12.5 6.25 6.25 0 000 12.5zM22 32a8 8 0 100-16 8 8 0 000 16z" fill="#74787d"></path>
  <path fill-rule="evenodd" clip-rule="evenodd" d="M16.381 28.619L11.12 33.88a.875.875 0 01-1.238-1.237l5.263-5.263a.875.875 0 111.237 1.238zM36.326 9.381a.875.875 0 010 1.238l-8.207 8.207a.875.875 0 11-1.238-1.238l8.207-8.207a.875.875 0 011.238 0zm-25.707 3a.875.875 0 011.237 0l5.263 5.263a.875.875 0 11-1.238 1.237L10.62 13.62a.875.875 0 010-1.238zm24.762 26.238a.875.875 0 01-1.237 0l-7.763-7.763a.875.875 0 011.238-1.237l7.762 7.762a.875.875 0 010 1.238z" fill="#74787d"></path>
</svg>