<svg width="24px" height="24px" viewBox="0 0 48 48" fill="none" xmlns="http://www.w3.org/2000/svg" class="Settings__SvgSettings-sc-bssp5z-0 erPRNe">
  <path fill-rule="evenodd" clip-rule="evenodd" d="M24 3a4.375 4.375 0 014.365 4.07c1.012.28 1.786.531 2.331.757.554.23 1.28.6 2.188 1.117a4.375 4.375 0 016.172 6.173c.53.936.911 1.684 1.145 2.255.217.53.459 1.282.729 2.264a4.375 4.375 0 010 8.729c-.265.966-.502 1.707-.716 2.23-.235.579-.62 1.338-1.158 2.288a4.375 4.375 0 01-6.171 6.174c-.88.5-1.583.862-2.12 1.087-.56.235-1.357.495-2.4.784a4.375 4.375 0 01-8.73.002c-.993-.274-1.754-.52-2.29-.74-.564-.232-1.304-.61-2.229-1.134a4.375 4.375 0 01-6.173-6.17c-.484-.849-.835-1.528-1.056-2.046-.244-.576-.514-1.398-.815-2.475a4.375 4.375 0 01-.001-8.73c.281-1.016.533-1.793.76-2.34.229-.552.599-1.275 1.112-2.179a4.375 4.375 0 016.172-6.173c.853-.487 1.535-.84 2.056-1.06.574-.244 1.392-.512 2.464-.81A4.375 4.375 0 0124 3zm-2.625 4.375c0 .612-.41 1.148-1 1.309-1.141.31-1.985.583-2.52.81-.493.209-1.202.58-2.117 1.109a1.356 1.356 0 01-1.637-.215 2.625 2.625 0 10-3.713 3.713c.434.433.523 1.104.216 1.636-.555.963-.941 1.71-1.157 2.228-.213.513-.47 1.32-.764 2.408a1.355 1.355 0 01-1.308 1.002 2.625 2.625 0 000 5.25c.612 0 1.148.41 1.309 1 .312 1.146.586 1.993.814 2.53.208.49.578 1.196 1.105 2.107.308.531.22 1.203-.215 1.638a2.625 2.625 0 103.713 3.712 1.357 1.357 0 011.636-.217c.982.565 1.744.958 2.273 1.176.505.208 1.295.458 2.362.746a1.354 1.354 0 011.003 1.308 2.625 2.625 0 005.25 0c0-.612.41-1.148 1-1.309 1.115-.302 1.94-.566 2.463-.786.506-.212 1.235-.591 2.174-1.134a1.356 1.356 0 011.638.216 2.625 2.625 0 003.712-3.712 1.357 1.357 0 01-.218-1.636c.578-1.006.979-1.786 1.2-2.329.2-.493.443-1.265.723-2.307a1.354 1.354 0 011.308-1.003 2.625 2.625 0 000-5.25c-.613 0-1.15-.411-1.308-1.003-.284-1.055-.531-1.838-.736-2.337-.219-.535-.615-1.305-1.186-2.299a1.357 1.357 0 01.217-1.636 2.625 2.625 0 00-3.712-3.712 1.357 1.357 0 01-1.637.216c-.967-.556-1.716-.944-2.237-1.16-.511-.212-1.315-.468-2.4-.76a1.355 1.355 0 01-1.001-1.309 2.625 2.625 0 00-5.25 0zM24 34.5c-5.799 0-10.5-4.701-10.5-10.5S18.201 13.5 24 13.5 34.5 18.201 34.5 24 29.799 34.5 24 34.5zm0-1.75a8.75 8.75 0 100-17.5 8.75 8.75 0 000 17.5z" fill="#74787d"></path>
</svg>