<svg width="24px" height="24px" viewBox="0 0 48 48" fill="none" xmlns="http://www.w3.org/2000/svg" class="User__SvgUser-sc-1rxywiq-0 knHgVK">
  <path fill-rule="evenodd" clip-rule="evenodd" d="M23.63 43c6.472 0 11.883-.683 16.228-2.04a2 2 0 001.376-2.237l-.843-5.073a5 5 0 00-4.501-4.161C32.128 29.163 28.042 29 23.63 29c-4.41 0-8.497.163-12.258.489a5 5 0 00-4.5 4.161l-.845 5.073a2 2 0 001.377 2.237C11.75 42.317 17.16 43 23.631 43zm0 2c-6.659 0-12.265-.708-16.822-2.13a4 4 0 01-2.753-4.475l.843-5.073a7 7 0 016.301-5.826c3.822-.33 7.965-.496 12.432-.496 4.466 0 8.61.165 12.431.497a7 7 0 016.301 5.825l.844 5.073a4 4 0 01-2.753 4.474C35.897 44.292 30.29 45 23.63 45zm-8-32a8 8 0 008 8 8 8 0 008-8 8 8 0 00-8-8 8 8 0 00-8 8zm-2 0c0-5.523 4.477-10 10-10 5.524 0 10 4.476 10 10 0 5.523-4.476 10-10 10-5.522 0-10-4.476-10-10z" fill="#74787d"></path>
</svg>